# xmcd
#
# Track frame offsets: 
#        150
#        27719
#        48034
#        79163
#        97782
#        122292
#        147063
#        173263
#        210969
#        232315
#        273921
#        318253
#
# Disc length: 4765 seconds
#
# Revision: 0
# Processed by: cddbd v1.5.2PL0 Copyright (c) Steve Scherf et al.
# Submitted via: ExactAudioCopy v1.0b3
#
DISCID=8d129b0c
DTITLE=Dr.John - Splinter Trip Revisited - Live at Hayfield
DYEAR=2012
DGENRE=Rock
TTITLE0=Junco Partner
TTITLE1=Tipitina
TTITLE2=You ain't so much a Cousin
TTITLE3=Big Chief
TTITLE4=Lets Make a Better World
TTITLE5=Blow Wind Blow - Jambalaya
TTITLE6=Mess around
TTITLE7=Iko Iko
TTITLE8=Blue Monday
TTITLE9=I Walk on gilded Splinters
TTITLE10=One Rat Woman
TTITLE11=Something you Got
EXTD=
EXTT0=
EXTT1=
EXTT2=
EXTT3=
EXTT4=
EXTT5=
EXTT6=
EXTT7=
EXTT8=
EXTT9=
EXTT10=
EXTT11=
PLAYORDER=
